<?xml version="1.0" encoding="utf-8"?>
<!-- Generator: Adobe Illustrator 23.1.1, SVG Export Plug-In . SVG Version: 6.00 Build 0)  -->
<svg version="1.1" id="Layer_1" xmlns="http://www.w3.org/2000/svg" xmlns:xlink="http://www.w3.org/1999/xlink" x="0px" y="0px"
	 viewBox="0 0 474.86908 226.77148" enable-background="new 0 0 474.86908 226.77148" xml:space="preserve">
<g>
	<path fill="#FFFFFF" d="M226.772,113.38477c0,62.6216-50.7657,113.38671-113.3877,113.38671H8.18018
		c-4.52149,0-8.18018-3.65771-8.18018-8.1797V8.18164C0,3.66065,3.65869,0,8.18018,0H113.3843
		C176.0063,0,226.772,50.76368,226.772,113.38477z M26.0796,85.87208v-27.7451c0-0.9209-0.7451-1.6646-1.6655-1.6646h-3.6377
		c-0.9209,0-1.666,0.7437-1.666,1.6646v27.7451c0,0.9199,0.7451,1.665,1.666,1.665h3.6377
		C25.3345,87.53708,26.0796,86.79198,26.0796,85.87208z M51.0195,85.87208v-27.7451c0-0.9209-0.7456-1.6646-1.6655-1.6646h-3.6382
		c-0.9214,0-1.6655,0.7437-1.6655,1.6646v15.4287l-6.5752-15.4287c-0.3511-0.833-0.7012-1.6646-1.8403-1.6646h-4.2076
		c-0.8774,0-1.6225,0.7437-1.6225,1.6646v27.7451c0,0.9199,0.7451,1.665,1.6225,1.665h3.6812c0.9209,0,1.6655-0.7451,1.6655-1.665
		v-15.1221l6.4873,15.1221c0.3941,0.876,0.7891,1.665,1.8413,1.665h4.2515C50.2739,87.53708,51.0195,86.79198,51.0195,85.87208z
		 M73.2422,79.07767c0-4.208-0.87701-5.4346-4.2515-7.6265l-5.5224-3.5942c-1.6226-1.0528-2.3667-1.5762-2.3667-2.8931v-1.0947
		c0-1.6665,1.0512-2.5869,2.4975-2.5869c1.2715,0,2.4986,0.9204,2.4986,2.7607v1.0972c0,0.8764,0.74509,1.6201,1.622,1.6201h3.68169
		c0.92091,0,1.665-0.7437,1.665-1.6201v-1.0972c0-5.6543-4.0757-8.5469-9.4673-8.5469c-6.2236,0-9.4238,3.2442-9.4238,9.25
		c0,2.8487,0.7895,5.3906,3.332,7.0127l6.1797,3.9883c1.5342,1.0068,2.4985,1.666,2.4985,3.0244v1.4468
		c0,1.4468-0.8334,2.4975-2.6303,2.4975c-1.4024,0-2.5415-1.2705-2.5415-2.7612v-1.8418c0-0.9194-0.7012-1.6645-1.6226-1.6645
		h-3.6372c-0.9209,0-1.6655,0.74509-1.6655,1.6645v1.7539c0,6.2681,4.2949,8.5913,9.4238,8.5913
		C69.9106,88.45798,73.2422,85.65288,73.2422,79.07767z M91.3491,60.93218v-2.8931c0-0.877-0.70119-1.5767-1.5771-1.5767H76.2178
		c-0.8765,0-1.5777,0.6997-1.5777,1.5767v2.8931c0,0.833,0.7012,1.5346,1.5777,1.5346h3.2964v23.4053
		c0,0.9199,0.7461,1.665,1.622,1.665h3.6817c0.92039,0,1.6655-0.7451,1.6655-1.665v-23.4053h3.2886
		C90.6479,62.46678,91.3491,61.76518,91.3491,60.93218z M120.3164,60.93218v-2.8931c0-0.877-0.7026-1.5767-1.5781-1.5767h-13.5552
		c-0.876,0-1.5771,0.6997-1.5771,1.5767v2.8931c0,0.833,0.7011,1.5346,1.5771,1.5346H108.48v23.4053
		c0,0.9199,0.74509,1.665,1.62109,1.665h3.6826c0.9209,0,1.6655-0.7451,1.6655-1.665v-23.4053h3.2891
		C119.6138,62.46678,120.3164,61.76518,120.3164,60.93218z M162.17679,60.93218v-2.8931c0-0.877-0.7027-1.5767-1.57869-1.5767
		h-13.5542c-0.8754,0-1.57761,0.6997-1.57761,1.5767v2.8931c0,0.833,0.70221,1.5346,1.57761,1.5346h3.2979v23.4053
		c0,0.9199,0.7446,1.665,1.62109,1.665h3.68161c0.92039,0,1.6651-0.7451,1.6651-1.665v-23.4053h3.2885
		C161.47409,62.46678,162.17679,61.76518,162.17679,60.93218z M101.1675,85.87208v-27.7451c0-0.9209-0.7451-1.6646-1.6655-1.6646
		h-3.6382c-0.92,0-1.6651,0.7437-1.6651,1.6646v27.7451c0,0.9199,0.7451,1.665,1.6651,1.665h3.6382
		C100.42239,87.53708,101.1675,86.79198,101.1675,85.87208z M142.61279,79.99857v-21.8716c0-0.9209-0.69969-1.6646-1.62059-1.6646
		h-3.68211c-0.87599,0-1.62259,0.7437-1.62259,1.6646v21.8716c0,1.49071-1.1826,2.7617-2.62891,2.7617
		s-2.58589-1.271-2.58589-2.7617v-21.8716c0-0.9209-0.74471-1.6646-1.6221-1.6646h-3.6807c-0.9204,0-1.666,0.7437-1.666,1.6646
		v21.8716c0,5.61031,4.4268,8.59081,9.5547,8.59081C138.2314,88.58938,142.61279,85.60888,142.61279,79.99857z M180.2534,85.95847
		v-3.11079c0-0.877-0.69971-1.57861-1.5762-1.57861h-6.94141v-6.92429h5.7569c0.87741,0,1.5771-0.70171,1.5771-1.5787v-2.8491
		c0-0.8755-0.69969-1.5781-1.5771-1.5781h-5.7569v-5.6104h6.72121c0.83299,0,1.5347-0.6997,1.5347-1.5781v-3.1113
		c0-0.877-0.70171-1.5767-1.5347-1.5767h-12.1118c-0.87691,0-1.5786,0.6997-1.5786,1.5767v27.9194
		c0,0.8775,0.70169,1.57861,1.5786,1.57861h12.332C179.5537,87.53708,180.2534,86.83598,180.2534,85.95847z M38.2207,123.00828
		v-19.3305c0-3.1993-3.1123-5.6968-6.311-5.6968H20.7764c-0.9209,0-1.666,0.7436-1.666,1.6645v27.7456
		c0,0.92001,0.7451,1.6656,1.666,1.6656h11.1333C35.1084,129.05667,38.2207,126.20657,38.2207,123.00828z M31.1641,121.42968
		c0,1.0957-0.877,1.9282-2.0162,1.9282h-3.0683v-19.6801h3.0683c1.1392,0,2.0162,0.833,2.0162,1.9282V121.42968z M57.4346,127.47808
		v-3.1114c0-0.8769-0.7012-1.5786-1.5782-1.5786H48.916v-6.9248h5.7573c0.8765,0,1.5782-0.70119,1.5782-1.57909v-2.8486
		c0-0.875-0.7017-1.5782-1.5782-1.5782H48.916v-5.6103h6.7212c0.833,0,1.5342-0.6997,1.5342-1.5781v-3.1114
		c0-0.8764-0.7012-1.5766-1.5342-1.5766H43.5254c-0.877,0-1.5781,0.7002-1.5781,1.5766v27.9205
		c0,0.8769,0.7011,1.57859,1.5781,1.57859h12.331C56.7334,129.05667,57.4346,128.35498,57.4346,127.47808z M78.8682,120.59718
		c0-4.208-0.877-5.4351-4.2515-7.6274l-5.5225-3.5938c-1.6225-1.0532-2.3667-1.5767-2.3667-2.8931v-1.0952
		c0-1.6665,1.0513-2.58691,2.4976-2.58691c1.272,0,2.4985,0.9204,2.4985,2.7612v1.0967c0,0.8765,0.7452,1.6201,1.6221,1.6201
		h3.68159c0.9209,0,1.6651-0.7436,1.6651-1.6201v-1.0967c0-5.65469-4.0757-8.54729-9.4673-8.54729
		c-6.2236,0-9.4233,3.24409-9.4233,9.25c0,2.8491,0.789,5.39059,3.3315,7.0136l6.1797,3.9883
		c1.53419,1.0064,2.4985,1.6656,2.4985,3.02489v1.4463c0,1.4463-0.8335,2.4971-2.6303,2.4971c-1.4024,0-2.5416-1.2705-2.5416-2.7612
		v-1.8423c0-0.9185-0.7011-1.6641-1.62251-1.6641h-3.6372c-0.9209,0-1.6655,0.7456-1.6655,1.6641v1.7544
		c0,6.26849,4.2949,8.5913,9.4238,8.5913C75.5366,129.97708,78.8682,127.17238,78.8682,120.59718z M89.168,127.39108v-27.7456
		c0-0.9209-0.7451-1.6645-1.6651-1.6645h-3.6386c-0.92001,0-1.6656,0.7436-1.6656,1.6645v27.7456
		c0,0.92001,0.7456,1.6656,1.6656,1.6656h3.6386C88.4229,129.05667,89.168,128.31108,89.168,127.39108z M111.9604,127.39108
		v-12.6889c0-0.9209-0.7451-1.667-1.6655-1.667h-5.9219c-0.8334,0-1.53461,0.7021-1.53461,1.5791v2.89259
		c0,0.8759,0.7012,1.57761,1.53461,1.57761h0.6187v2.4331c0,1.4907-1.1401,2.7612-2.5864,2.7612
		c-1.4463,0-2.58549-1.2705-2.58549-2.7612v-15.9556c0-1.4907,1.1392-2.7612,2.58549-2.7612c1.4463,0,2.5864,1.2705,2.5864,2.7612
		v1.0967c0,0.8765,0.74509,1.6201,1.6655,1.6201h3.6377c0.92039,0,1.6655-0.7436,1.6655-1.6201v-1.0967
		c0-5.65469-4.4267-8.54729-9.5551-8.54729c-5.128,0-9.5113,2.937-9.5113,8.54729v15.9556c0,4.645,2.2354,8.4595,6.9258,8.4595
		c2.58549,0,4.16409-1.0083,5.1719-2.54201c0.0439,0.91991,0.74509,1.6216,1.6655,1.6216h3.6377
		C111.21529,129.05667,111.9604,128.31108,111.9604,127.39108z M136.6826,127.39108v-27.7456c0-0.9209-0.7466-1.6645-1.666-1.6645
		h-3.6387c-0.92039,0-1.664,0.7436-1.664,1.6645v15.4287l-6.5772-15.4287c-0.3501-0.833-0.6997-1.6645-1.8384-1.6645h-4.208
		c-0.8789,0-1.6225,0.7436-1.6225,1.6645v27.7456c0,0.92001,0.7436,1.6656,1.6225,1.6656h3.68021
		c0.9219,0,1.6665-0.74559,1.6665-1.6656v-15.1225l6.4863,15.1225c0.39461,0.876,0.7906,1.6656,1.8409,1.6656h4.25241
		C135.936,129.05667,136.6826,128.31108,136.6826,127.39108z M156.0708,127.47808v-3.1114c0-0.8769-0.70261-1.5786-1.57811-1.5786
		h-6.94049v-6.9248h5.7569c0.8755,0,1.57809-0.70119,1.57809-1.57909v-2.8486c0-0.875-0.70259-1.5782-1.57809-1.5782h-5.7569
		v-5.6103h6.72029c0.83391,0,1.53461-0.6997,1.53461-1.5781v-3.1114c0-0.8764-0.7007-1.5766-1.53461-1.5766h-12.1109
		c-0.8779,0-1.5786,0.7002-1.5786,1.5766v27.9205c0,0.8769,0.7007,1.57859,1.5786,1.57859h12.3311
		C155.36819,129.05667,156.0708,128.35498,156.0708,127.47808z M178.24849,127.39108v-8.1963
		c0-3.1997-1.31439-5.6108-4.77679-5.7856c3.24271-0.3066,4.29491-2.543,4.29491-5.7861v-3.9453
		c0-3.1993-2.543-5.6968-6.1792-5.6968h-10.7393c-0.9209,0-1.66451,0.7436-1.66451,1.6645v27.7456
		c0,0.92001,0.74361,1.6656,1.66451,1.6656h3.6382c0.91949,0,1.6665-0.74559,1.6665-1.6656v-11.0459h3.5923
		c0.92039,0,1.44629,0.6133,1.44629,1.752v9.2939c0,0.92001,0.70261,1.6656,1.6226,1.6656h3.81201
		C177.5049,129.05667,178.24849,128.31108,178.24849,127.39108z M171.19139,108.85007c0,0.9634-0.7876,1.7539-1.75189,1.7539
		h-3.2867v-6.92619h3.2867c0.96429,0,1.75189,0.7885,1.75189,1.7099V108.85007z M200.07709,120.59718
		c0-4.208-0.87639-5.4351-4.25089-7.6274l-5.52301-3.5938c-1.62199-1.0532-2.3667-1.5767-2.3667-2.8931v-1.0952
		c0-1.6665,1.05231-2.58691,2.49901-2.58691c1.2706,0,2.49759,0.9204,2.49759,2.7612v1.0967c0,0.8765,0.7451,1.6201,1.6226,1.6201
		h3.6801c0.9209,0,1.6665-0.7436,1.6665-1.6201v-1.0967c0-5.65469-4.0761-8.54729-9.4668-8.54729
		c-6.22549,0-9.4243,3.24409-9.4243,9.25c0,2.8491,0.78859,5.39059,3.3306,7.0136l6.18159,3.9883
		c1.53421,1.0064,2.49811,1.6656,2.49811,3.02489v1.4463c0,1.4463-0.834,2.4971-2.6299,2.4971
		c-1.4028,0-2.54201-1.2705-2.54201-2.7612v-1.8423c0-0.9185-0.70259-1.6641-1.6216-1.6641h-3.6382
		c-0.9218,0-1.6665,0.7456-1.6665,1.6641v1.7544c0,6.26849,4.2955,8.5913,9.4239,8.5913
		C196.74559,129.97708,200.07709,127.17238,200.07709,120.59718z M26.0796,168.91017v-27.74559
		c0-0.92041-0.7451-1.66411-1.6655-1.66411h-3.6377c-0.9209,0-1.666,0.7437-1.666,1.66411v27.74559
		c0,0.9194,0.7451,1.66501,1.666,1.66501h3.6377C25.3345,170.57518,26.0796,169.82957,26.0796,168.91017z M50.186,168.91017
		v-8.19679c0-3.19971-1.3154-5.61031-4.7783-5.7847c3.2437-0.3076,4.2954-2.54291,4.2954-5.78661v-3.9453
		c0-3.1982-2.542-5.6963-6.1797-5.6963H32.7842c-0.9199,0-1.6651,0.7437-1.6651,1.66411v27.74559
		c0,0.9194,0.7452,1.66501,1.6651,1.66501h3.6387c0.9199,0,1.665-0.74561,1.665-1.66501v-11.0464h3.5947
		c0.9199,0,1.4463,0.6138,1.4463,1.75291v9.29349c0,0.9194,0.7012,1.66501,1.6211,1.66501h3.8135
		C49.4404,170.57518,50.186,169.82957,50.186,168.91017z M43.1289,150.36967c0,0.9628-0.7891,1.7534-1.7534,1.7534h-3.2876v-6.9263
		h3.2876c0.9643,0,1.7534,0.78909,1.7534,1.71049V150.36967z M72.0269,168.99707v-3.11179c0-0.87651-0.7012-1.57861-1.5782-1.57861
		h-8.5468v-6.92479h7.3632c0.8775,0,1.5787-0.7007,1.5787-1.57721v-2.8501c0-0.8755-0.7012-1.57809-1.5787-1.57809h-7.3632v-5.60991
		H70.23c0.8325,0,1.5337-0.69969,1.5337-1.57809v-3.1118c0-0.8765-0.7012-1.5762-1.5337-1.5762H56.5112
		c-0.8769,0-1.5781,0.69971-1.5781,1.5762v27.92039c0,0.87651,0.7012,1.57811,1.5781,1.57811h13.9375
		C71.3257,170.57518,72.0269,169.87358,72.0269,168.99707z M92.5835,168.99707v-3.11179c0-0.87651-0.7012-1.57861-1.5772-1.57861
		H83.686v-23.14209c0-0.92041-0.74509-1.66411-1.6215-1.66411h-3.6817c-0.9199,0-1.665,0.7437-1.665,1.66411v27.74559
		c0,0.9194,0.7451,1.66501,1.665,1.66501h12.6235C91.8823,170.57518,92.5835,169.87358,92.5835,168.99707z M117.9063,169.17288
		c0-0.08791,0-0.13191-0.044-0.26271l-5.918-27.74559c-0.1757-0.92041-0.7441-1.66411-1.6211-1.66411h-7.2763
		c-0.8765,0-1.4468,0.7437-1.6216,1.66411l-5.917,27.74559c-0.0439,0.1308-0.0439,0.1748-0.0439,0.26271
		c0,0.7885,0.8759,1.4023,1.7094,1.4023h3.68121c0.87689,0,1.4463-0.74561,1.6225-1.66501l0.876-4.42729h6.61819l0.92091,4.42729
		c0.2197,0.9194,0.74509,1.66501,1.66599,1.66501h3.6387C117.02879,170.57518,117.9063,169.96138,117.9063,169.17288z
		 M108.8765,158.74118h-4.4273l2.2354-11.1333L108.8765,158.74118z M142.89059,168.91017v-27.74559
		c0-0.92041-0.74559-1.66411-1.666-1.66411h-3.6377c-0.92039,0-1.66501,0.7437-1.66501,1.66411v15.4287l-6.5752-15.4287
		c-0.3501-0.8325-0.70219-1.66411-1.8404-1.66411h-4.2084c-0.8765,0-1.6221,0.7437-1.6221,1.66411v27.74559
		c0,0.9194,0.7456,1.66501,1.6221,1.66501h3.6806c0.92139,0,1.666-0.74561,1.666-1.66501v-15.1216l6.48729,15.1216
		c0.3941,0.8755,0.7901,1.66501,1.84041,1.66501h4.2524C142.145,170.57518,142.89059,169.82957,142.89059,168.91017z
		 M166.65529,164.52687v-19.33009c0-3.1982-3.11279-5.6963-6.3125-5.6963H149.2104c-0.92041,0-1.666,0.7437-1.666,1.66411v27.74559
		c0,0.9194,0.74559,1.66501,1.666,1.66501h11.13239C163.5425,170.57518,166.65529,167.72557,166.65529,164.52687z
		 M159.5981,162.94827c0,1.0957-0.8764,1.92821-2.0161,1.92821h-3.0688v-19.6797h3.0688c1.13969,0,2.0161,0.83299,2.0161,1.92819
		V162.94827z"/>
	<g>
		<g>
			<path fill="#FFFFFF" d="M268.50879,91.63528h-10.7774v15.0434c0,1.5718-1.27237,2.8443-2.84419,2.8443h-6.2119
				c-1.57179,0-2.84419-1.2725-2.84419-2.8443v-47.3764c0-1.5718,1.2724-2.8438,2.84419-2.8438h19.08539
				c5.46341,0,10.55283,4.4155,10.55283,9.8794v15.4927C278.31351,87.29398,273.89789,91.63528,268.50879,91.63528z
				 M266.2637,69.10698c0-1.5718-1.3472-2.919-2.99371-2.919h-5.5386v15.7925h5.5386c1.64651,0,2.99371-1.3477,2.99371-2.9941
				V69.10698z"/>
			<path fill="#FFFFFF" d="M311.17239,109.52298h-6.51129c-1.57172,0-2.7695-1.2725-2.7695-2.8443V90.81197
				c0-1.9463-0.89792-2.99409-2.4697-2.99409h-6.13721v18.8608c0,1.5718-1.27249,2.8443-2.8443,2.8443h-6.21191
				c-1.57178,0-2.84418-1.2725-2.84418-2.8443v-47.3764c0-1.5718,1.2724-2.8438,2.84418-2.8438h18.33691
				c6.21188,0,10.5528,4.2661,10.5528,9.7295v6.73589c0,5.53851-1.7959,9.3559-7.3345,9.87981
				c5.9126,0.2994,8.1582,4.4156,8.1582,9.87939v13.99561C313.94189,108.25048,312.6694,109.52298,311.17239,109.52298z
				 M301.8916,69.10698c0-1.5718-1.3472-2.919-2.99371-2.919h-5.61319v11.8257h5.61319c1.64651,0,2.99371-1.34721,2.99371-2.9941
				V69.10698z"/>
			<path fill="#FFFFFF" d="M332.87988,111.09478c-8.7569,0-16.24118-5.0894-16.24118-14.6695v-27.019
				c0-9.5801,7.48428-14.5948,16.24118-14.5948c8.832,0,16.31641,4.94,16.31641,14.5948v27.019
				C349.19629,106.08008,341.71188,111.09478,332.87988,111.09478z M337.2959,69.40628c0-2.5445-1.9458-4.7149-4.41602-4.7149
				c-2.4697,0-4.4155,2.1704-4.4155,4.7149v27.1684c0,2.545,1.9458,4.7154,4.4155,4.7154c2.47021,0,4.41602-2.1704,4.41602-4.7154
				V69.40628z"/>
			<path fill="#FFFFFF" d="M368.88278,111.31937c-8.75677,0-16.31589-5.08939-16.31589-14.66949v-37.3476
				c0-1.5718,1.27249-2.8438,2.84421-2.8438h6.28668c1.49701,0,2.7695,1.272,2.7695,2.8438v37.3476
				c0,2.54449,1.9458,4.7149,4.4155,4.7149s4.49072-2.1704,4.49072-4.7149v-37.3476c0-1.5718,1.27249-2.8438,2.76907-2.8438h6.28711
				c1.57181,0,2.76901,1.272,2.76901,2.8438v37.3476C385.1987,106.22998,377.71439,111.31937,368.88278,111.31937z"/>
			<path fill="#FFFFFF" d="M411.54688,109.52298H392.5361c-1.57172,0-2.84421-1.2725-2.84421-2.8443v-47.3764
				c0-1.5718,1.27249-2.8438,2.84421-2.8438h19.01077c5.46292,0,10.77731,4.2661,10.77731,9.7295v33.00639
				C422.32419,104.65818,417.0098,109.52298,411.54688,109.52298z M410.27438,69.48148c0-1.8711-1.4971-3.2935-3.4433-3.2935
				h-5.2388v33.605h5.2388c1.9462,0,3.4433-1.4219,3.4433-3.293V69.48148z"/>
			<path fill="#FFFFFF" d="M286.62109,170.63377h-5.53809c-1.57181,0-2.84421-1.2724-2.84421-2.84419v-29.18901l-5.98779,29.18901
				c-0.22412,1.57179-1.19733,2.84419-2.7691,2.84419h-3.51752c-1.57181,0-2.54498-1.2724-2.8443-2.84419l-5.9873-29.18901v29.18901
				c0,1.57179-1.27238,2.84419-2.76949,2.84419H248.75c-1.49661,0-2.769-1.2724-2.769-2.84419v-47.3765
				c0-1.5718,1.27238-2.8437,2.769-2.8437h10.6279c1.64648,0,2.54498,1.2719,2.8443,2.8437l5.46329,26.7944l5.4639-26.7944
				c0.37402-1.6465,1.27252-2.8437,2.8443-2.8437h10.62741c1.57181,0,2.84421,1.2719,2.84421,2.8437v47.3765
				C289.4653,169.36137,288.1929,170.63377,286.62109,170.63377z"/>
			<path fill="#FFFFFF" d="M320.23001,170.63377H296.4292c-1.49661,0-2.69431-1.1973-2.69431-2.69429v-47.6758
				c0-1.4971,1.19769-2.69431,2.69431-2.69431h23.4263c1.4223,0,2.6196,1.1972,2.6196,2.69431v5.314
				c0,1.49651-1.1973,2.6943-2.6196,2.6943h-14.22021v9.58011h12.57373c1.49707,0,2.69427,1.19719,2.69427,2.69429v4.86481
				c0,1.49699-1.1972,2.69431-2.69427,2.69431h-12.57373v11.8257h14.59473c1.49658,0,2.69427,1.19719,2.69427,2.69429v5.31401
				C322.92429,169.43648,321.72659,170.63377,320.23001,170.63377z"/>
			<path fill="#FFFFFF" d="M366.78519,170.63377h-5.53809c-1.57181,0-2.8443-1.2724-2.8443-2.84419v-29.18901l-5.98779,29.18901
				c-0.22412,1.57179-1.1972,2.84419-2.76901,2.84419h-3.51761c-1.57181,0-2.54489-1.2724-2.84421-2.84419l-5.98727-29.18901
				v29.18901c0,1.57179-1.27252,2.84419-2.76962,2.84419h-5.61319c-1.49661,0-2.7691-1.2724-2.7691-2.84419v-47.3765
				c0-1.5718,1.27249-2.8437,2.7691-2.8437h10.6279c1.64648,0,2.54489,1.2719,2.84421,2.8437l5.46338,26.7944l5.4639-26.7944
				c0.37402-1.6465,1.2724-2.8437,2.84421-2.8437h10.6275c1.57172,0,2.84421,1.2719,2.84421,2.8437v47.3765
				C369.62939,169.36137,368.3569,170.63377,366.78519,170.63377z"/>
			<path fill="#FFFFFF" d="M395.6792,170.63377h-18.93552c-1.57178,0-2.8443-1.2724-2.8443-2.84419v-47.3765
				c0-1.5718,1.27252-2.8437,2.8443-2.8437h18.18701c5.83789,0,10.25391,4.4155,10.25391,9.8794v5.164
				c0,5.5386-1.04791,8.5322-6.0625,10.25391c5.08929,1.1973,7.55948,3.81689,7.55948,9.28079v8.6069
				C406.68158,166.29298,401.51709,170.63377,395.6792,170.63377z M394.1821,130.29248c0-2.2451-1.1225-2.99361-3.0683-2.99361
				h-5.314v11.4511h5.314c1.64648,0,3.0683-0.59859,3.0683-2.9189V130.29248z M394.70609,151.17427
				c0-2.99359-1.64648-3.36809-3.293-3.36809h-5.61328v13.0976h5.61328c1.64651,0,3.293-0.5239,3.293-2.9189V151.17427z"/>
			<path fill="#FFFFFF" d="M436.5459,170.63377h-23.80081c-1.4971,0-2.69431-1.1973-2.69431-2.69429v-47.6758
				c0-1.4971,1.1972-2.69431,2.69431-2.69431h23.42679c1.42191,0,2.61911,1.1972,2.61911,2.69431v5.314
				c0,1.49651-1.1972,2.6943-2.61911,2.6943H421.9512v9.58011h12.57419c1.49609,0,2.69431,1.19719,2.69431,2.69429v4.86481
				c0,1.49699-1.19821,2.69431-2.69431,2.69431H421.9512v11.8257h14.5947c1.4971,0,2.69431,1.19719,2.69431,2.69429v5.31401
				C439.2402,169.43648,438.043,170.63377,436.5459,170.63377z"/>
			<path fill="#FFFFFF" d="M472.09958,170.63377h-6.51169c-1.57129,0-2.76862-1.2724-2.76862-2.84419v-15.8667
				c0-1.9463-0.89838-2.9942-2.4697-2.9942h-6.1377v18.8609c0,1.57179-1.2724,2.84419-2.84369,2.84419h-6.21289
				c-1.57129,0-2.84381-1.2724-2.84381-2.84419v-47.3765c0-1.5718,1.27252-2.8437,2.84381-2.8437h18.33688
				c6.21289,0,10.55371,4.26611,10.55371,9.7295v6.73581c0,5.53859-1.79691,9.3559-7.33502,9.8799
				c5.91312,0.2993,8.1582,4.4155,8.1582,9.87939v13.99561C474.86908,169.36137,473.59668,170.63377,472.09958,170.63377z
				 M462.81927,130.21777c0-1.57179-1.3476-2.9189-2.99408-2.9189h-5.61331v11.82561h5.61331
				c1.64648,0,2.99408-1.34711,2.99408-2.99411V130.21777z"/>
		</g>
	</g>
</g>
</svg>
